<svg width="56" height="56" fill="none" xmlns="http://www.w3.org/2000/svg"><g clip-path="url(#clip0_1_112)" filter="url(#filter0_d_1_112)" fill="#fff"><path d="M46.879 9.182h1.483a.937.937 0 000-1.874h-3.56a.937.937 0 00-.937.937v3.56a.937.937 0 001.873 0v-1.031A22.054 22.054 0 0150.126 24c0 12.2-9.925 22.126-22.126 22.126-12.2 0-22.126-9.925-22.126-22.126C5.874 11.8 15.799 1.874 28 1.874c.902 0 1.81.055 2.7.163a.938.938 0 00.226-1.86A24.341 24.341 0 0028 0a23.843 23.843 0 00-16.97 7.03A23.843 23.843 0 004 24c0 6.41 2.496 12.438 7.03 16.97A23.843 23.843 0 0028 48c6.41 0 12.438-2.496 16.97-7.03A23.843 23.843 0 0052 24a23.92 23.92 0 00-5.121-14.818z"/><path d="M14.163 14.148a.937.937 0 00-1.293.29 17.963 17.963 0 00-2.666 11.44 17.936 17.936 0 005.143 10.776A17.839 17.839 0 0028 41.886c4.583 0 9.165-1.744 12.654-5.233 6.977-6.977 6.977-18.33 0-25.306a17.937 17.937 0 00-10.759-5.141A17.964 17.964 0 0018.47 8.85a.937.937 0 001 1.586C25.832 6.424 34 7.343 39.328 12.672c6.246 6.246 6.246 16.41 0 22.656-6.247 6.247-16.41 6.247-22.657 0-5.255-5.254-6.188-13.618-2.219-19.887a.937.937 0 00-.29-1.293z"/><path d="M40.18 24.952h1.155a.937.937 0 000-1.874H40.18a.937.937 0 000 1.874zm-26.452-.967c0 .517.42.937.937.937h1.155a.937.937 0 000-1.874h-1.155a.937.937 0 00-.937.937zM28.952 11.82v-1.155a.937.937 0 00-1.874 0v1.155a.937.937 0 001.874 0zm-1.904 24.36v1.155a.937.937 0 001.874 0V36.18a.937.937 0 00-1.874 0zm-3.744-18.201a.937.937 0 00-1.325 1.325l3.175 3.175A3.208 3.208 0 0024.772 24 3.231 3.231 0 0028 27.228 3.231 3.231 0 0031.228 24c0-.55-.139-1.067-.382-1.52l6.407-6.407a.937.937 0 00-1.325-1.325l-6.407 6.406A3.207 3.207 0 0028 20.773c-.55 0-1.067.138-1.52.381l-3.176-3.175zM29.354 24c0 .747-.607 1.354-1.354 1.354A1.355 1.355 0 0126.646 24a1.355 1.355 0 012.708 0zM16.671 12.671a.94.94 0 00.276-.662.942.942 0 00-.938-.937c-.247 0-.488.1-.663.274a.945.945 0 00-.274.663c0 .247.1.488.274.662a.945.945 0 00.663.275c.247 0 .488-.1.662-.275zM34.49 2.8a.94.94 0 00.938-.938.94.94 0 00-.275-.662.945.945 0 00-.663-.275c-.247 0-.488.1-.663.275a.944.944 0 00-.274.662.94.94 0 00.937.937z"/></g><defs><clipPath id="clip0_1_112"><path fill="#fff" transform="translate(4)" d="M0 0h48v48H0z"/></clipPath><filter id="filter0_d_1_112" x="0" y="0" width="56" height="56" filterUnits="userSpaceOnUse" color-interpolation-filters="sRGB"><feFlood flood-opacity="0" result="BackgroundImageFix"/><feColorMatrix in="SourceAlpha" values="0 0 0 0 0 0 0 0 0 0 0 0 0 0 0 0 0 0 127 0" result="hardAlpha"/><feOffset dy="4"/><feGaussianBlur stdDeviation="2"/><feComposite in2="hardAlpha" operator="out"/><feColorMatrix values="0 0 0 0 0 0 0 0 0 0 0 0 0 0 0 0 0 0 0.25 0"/><feBlend in2="BackgroundImageFix" result="effect1_dropShadow_1_112"/><feBlend in="SourceGraphic" in2="effect1_dropShadow_1_112" result="shape"/></filter></defs></svg>