<svg width="56" height="56" viewBox="0 0 56 56" fill="none" xmlns="http://www.w3.org/2000/svg">
<g clip-path="url(#clip0_1_112)" filter="url(#filter0_d_1_112)">
<path d="M46.8785 9.18157H48.3616C48.879 9.18157 49.2985 8.76203 49.2985 8.24468C49.2985 7.72734 48.879 7.3078 48.3616 7.3078H44.8014C44.2841 7.3078 43.8646 7.72734 43.8646 8.24468V11.8048C43.8646 12.3222 44.2841 12.7417 44.8014 12.7417C45.3188 12.7417 45.7383 12.3222 45.7383 11.8048V10.774C48.581 14.5797 50.1262 19.1973 50.1262 24C50.1262 36.2005 40.2005 46.1262 28 46.1262C15.7995 46.1262 5.87377 36.2005 5.87377 24C5.87377 11.7995 15.7995 1.87377 28 1.87377C28.9023 1.87377 29.8104 1.92858 30.6994 2.0366C31.2123 2.09862 31.6801 1.73333 31.7425 1.21964C31.805 0.706037 31.4392 0.238906 30.9255 0.176509C29.9618 0.0593985 28.9776 0 28 0C21.5894 0 15.5624 2.49642 11.0294 7.02945C6.49642 11.5624 4 17.5894 4 24C4 30.4106 6.49642 36.4376 11.0294 40.9706C15.5624 45.5036 21.5894 48 28 48C34.4106 48 40.4376 45.5036 44.9706 40.9706C49.5036 36.4376 52 30.4106 52 24C52 18.5903 50.1927 13.397 46.8785 9.18157Z" fill="white"/>
<path d="M14.1626 14.1482C13.7253 13.8714 13.1466 14.0016 12.8698 14.4386C10.731 17.8166 9.78414 21.8792 10.2038 25.8779C10.6296 29.9359 12.456 33.7627 15.3467 36.6535C18.8352 40.142 23.4176 41.8862 28.0001 41.8862C32.5826 41.8862 37.1649 40.142 40.6535 36.6535C47.6306 29.6764 47.6306 18.3238 40.6535 11.3468C37.7672 8.46062 33.9467 6.63482 29.8954 6.20573C25.9041 5.78272 21.846 6.72214 18.4693 8.85046C18.0315 9.12637 17.9005 9.7049 18.1763 10.1426C18.4522 10.5804 19.0307 10.7115 19.4684 10.4357C25.8334 6.42393 34 7.34329 39.3284 12.6717C45.5749 18.9182 45.5749 29.0819 39.3284 35.3284C33.082 41.575 22.9181 41.575 16.6717 35.3284C11.4169 30.0736 10.4838 21.7098 14.453 15.4411C14.7297 15.0038 14.5997 14.425 14.1626 14.1482Z" fill="white"/>
<path d="M40.1796 24.952H41.335C41.8523 24.952 42.2718 24.5325 42.2718 24.0151C42.2718 23.4978 41.8523 23.0782 41.335 23.0782H40.1796C39.6622 23.0782 39.2427 23.4978 39.2427 24.0151C39.2427 24.5325 39.6621 24.952 40.1796 24.952Z" fill="white"/>
<path d="M13.7281 23.9849C13.7281 24.5022 14.1477 24.9217 14.665 24.9217H15.8204C16.3377 24.9217 16.7573 24.5022 16.7573 23.9849C16.7573 23.4675 16.3377 23.048 15.8204 23.048H14.665C14.1477 23.048 13.7281 23.4674 13.7281 23.9849Z" fill="white"/>
<path d="M28.9521 11.8204V10.665C28.9521 10.1477 28.5325 9.72815 28.0152 9.72815C27.4978 9.72815 27.0783 10.1477 27.0783 10.665V11.8204C27.0783 12.3377 27.4978 12.7573 28.0152 12.7573C28.5325 12.7573 28.9521 12.3377 28.9521 11.8204Z" fill="white"/>
<path d="M27.0479 36.1796V37.3349C27.0479 37.8523 27.4675 38.2718 27.9848 38.2718C28.5022 38.2718 28.9217 37.8523 28.9217 37.3349V36.1796C28.9217 35.6622 28.5022 35.2427 27.9848 35.2427C27.4675 35.2427 27.0479 35.6621 27.0479 36.1796Z" fill="white"/>
<path d="M23.304 17.979C22.938 17.6132 22.345 17.6132 21.9789 17.979C21.6131 18.3448 21.6131 18.9381 21.9789 19.304L25.1541 22.4792C24.9108 22.9327 24.7724 23.4505 24.7724 24C24.7724 25.7798 26.2203 27.2276 28 27.2276C29.7797 27.2276 31.2276 25.7798 31.2276 24C31.2276 23.4505 31.0891 22.9327 30.8459 22.4792L37.2526 16.0725C37.6184 15.7066 37.6184 15.1134 37.2526 14.7475C36.8866 14.3817 36.2936 14.3817 35.9275 14.7475L29.5208 21.1542C29.0674 20.9109 28.5496 20.7725 28 20.7725C27.4504 20.7725 26.9326 20.911 26.4792 21.1542L23.304 17.979ZM29.3538 24C29.3538 24.7466 28.7465 25.3538 28 25.3538C27.2535 25.3538 26.6462 24.7466 26.6462 24C26.6462 23.2535 27.2535 22.6463 28 22.6463C28.7465 22.6463 29.3538 23.2535 29.3538 24Z" fill="white"/>
<path d="M16.6712 12.6712C16.8464 12.4969 16.9465 12.2552 16.9465 12.0088C16.9465 11.7624 16.8464 11.5216 16.6712 11.3464C16.4969 11.1722 16.2561 11.0719 16.0088 11.0719C15.7624 11.0719 15.5207 11.1721 15.3464 11.3464C15.1723 11.5207 15.0719 11.7624 15.0719 12.0088C15.0719 12.2561 15.1722 12.4969 15.3464 12.6712C15.5207 12.8453 15.7624 12.9457 16.0088 12.9457C16.2561 12.9457 16.4969 12.8453 16.6712 12.6712Z" fill="white"/>
<path d="M34.4898 2.79919C34.7372 2.79919 34.979 2.69978 35.1531 2.52468C35.3274 2.35042 35.4277 2.10954 35.4277 1.8623C35.4277 1.6159 35.3275 1.37418 35.1531 1.19992C34.979 1.02576 34.7372 0.925415 34.4898 0.925415C34.2434 0.925415 34.0017 1.02566 33.8275 1.19992C33.6533 1.37418 33.5529 1.6159 33.5529 1.8623C33.5529 2.10964 33.6532 2.35042 33.8275 2.52468C34.0017 2.69978 34.2434 2.79919 34.4898 2.79919Z" fill="white"/>
</g>
<defs>
<filter id="filter0_d_1_112" x="0" y="0" width="56" height="56" filterUnits="userSpaceOnUse" color-interpolation-filters="sRGB">
<feFlood flood-opacity="0" result="BackgroundImageFix"/>
<feColorMatrix in="SourceAlpha" type="matrix" values="0 0 0 0 0 0 0 0 0 0 0 0 0 0 0 0 0 0 127 0" result="hardAlpha"/>
<feOffset dy="4"/>
<feGaussianBlur stdDeviation="2"/>
<feComposite in2="hardAlpha" operator="out"/>
<feColorMatrix type="matrix" values="0 0 0 0 0 0 0 0 0 0 0 0 0 0 0 0 0 0 0.25 0"/>
<feBlend mode="normal" in2="BackgroundImageFix" result="effect1_dropShadow_1_112"/>
<feBlend mode="normal" in="SourceGraphic" in2="effect1_dropShadow_1_112" result="shape"/>
</filter>
<clipPath id="clip0_1_112">
<rect width="48" height="48" fill="white" transform="translate(4)"/>
</clipPath>
</defs>
</svg>
