<svg width="56" height="56" viewBox="0 0 56 56" fill="none" xmlns="http://www.w3.org/2000/svg">
<g clip-path="url(#clip0_1_147)" filter="url(#filter0_d_1_147)">
<path d="M32.7542 27.6937C34.5803 24.5243 35.1808 20.7954 34.4422 17.2129C33.7035 13.6305 31.677 10.4432 28.7463 8.2545C28.7353 6.97483 28.3896 5.72031 27.7434 4.61571C27.0972 3.51111 26.1731 2.59492 25.063 1.95825C23.6778 1.16702 22.1103 0.750578 20.515 0.75H18.985C17.3897 0.750578 15.8222 1.16702 14.437 1.95825C13.3263 2.59524 12.4019 3.51202 11.7557 4.61734C11.1095 5.72265 10.764 6.97794 10.7537 8.25825C8.58754 9.88146 6.90133 12.061 5.87417 14.5654C4.847 17.0699 4.51723 19.8057 4.91985 22.4825C5.32248 25.1593 6.44248 27.6771 8.16093 29.7686C9.87938 31.86 12.1321 33.4471 14.68 34.3612L13.315 36.75H7C6.40326 36.75 5.83097 36.9871 5.40901 37.409C4.98705 37.831 4.75 38.4033 4.75 39V45C4.75 45.5967 4.98705 46.169 5.40901 46.591C5.83097 47.0129 6.40326 47.25 7 47.25H26.5C27.0967 47.25 27.669 47.0129 28.091 46.591C28.5129 46.169 28.75 45.5967 28.75 45V39C28.75 38.4033 28.5129 37.831 28.091 37.409C27.669 36.9871 27.0967 36.75 26.5 36.75H20.185L19.3202 35.2365C19.4635 35.241 19.6067 35.25 19.75 35.25C22.3634 35.2499 24.9308 34.5616 27.1937 33.2542L40.0375 46.098C40.7768 46.8261 41.7739 47.2324 42.8116 47.2285C43.8492 47.2245 44.8432 46.8106 45.577 46.077C46.3107 45.3433 46.7248 44.3493 46.7288 43.3117C46.7329 42.2741 46.3267 41.2769 45.5988 40.5375L32.7542 27.6937ZM15.181 3.26025C16.3397 2.59885 17.6508 2.25067 18.985 2.25H20.515C21.8492 2.25067 23.1603 2.59885 24.319 3.26025C25.6527 4.01762 26.6315 5.27324 27.0404 6.75151C27.4493 8.22977 27.2549 9.80988 26.5 11.145V10.3628C26.5013 9.32601 26.1943 8.31229 25.618 7.4505L24.874 6.33375C24.8174 6.24891 24.7441 6.1765 24.6586 6.12095C24.573 6.0654 24.4771 6.02788 24.3766 6.01068C24.276 5.99349 24.1731 5.99697 24.0739 6.02092C23.9748 6.04488 23.8816 6.0888 23.8 6.15L22.8002 6.9C21.6305 7.77379 20.2103 8.24721 18.7502 8.25H16.75C15.8839 8.25159 15.045 8.55243 14.3753 9.1016C13.7056 9.65077 13.2462 10.4145 13.075 11.2635C12.678 10.6023 12.4174 9.86831 12.3085 9.10482C12.1996 8.34132 12.2446 7.56375 12.4409 6.81792C12.6371 6.07209 12.9807 5.37308 13.4513 4.76208C13.9219 4.15108 14.51 3.64044 15.181 3.26025ZM16.75 19.5375V21.8625L15.5448 22.0635C14.0556 22.316 12.6877 23.0425 11.6447 24.135C10.8699 22.5355 10.5893 20.7414 10.8387 18.9817C11.0881 17.2219 11.8562 15.5765 13.045 14.2552C13.173 15.3749 13.579 16.4447 14.2261 17.3673C14.8732 18.2899 15.7409 19.0359 16.75 19.5375ZM18.25 20.076C19.2365 20.308 20.2635 20.308 21.25 20.076V22.0718C20.7856 22.3091 20.2715 22.4329 19.75 22.4329C19.2285 22.4329 18.7144 22.3091 18.25 22.0718V20.076ZM19.75 18.75C18.3581 18.7484 17.0237 18.1948 16.0394 17.2106C15.0552 16.2263 14.5016 14.8919 14.5 13.5V12C14.5 11.4033 14.7371 10.831 15.159 10.409C15.581 9.98705 16.1533 9.75 16.75 9.75H18.7502C20.5347 9.74603 22.2703 9.16747 23.7003 8.1L24.0648 7.82625L24.3693 8.28225C24.7812 8.89785 25.0007 9.62204 25 10.3628V13.5C24.9984 14.8919 24.4448 16.2263 23.4606 17.2106C22.4763 18.1948 21.1419 18.7484 19.75 18.75ZM15.7907 23.5455L17.3657 23.283C18.0883 23.7092 18.9119 23.934 19.7507 23.934C20.5896 23.934 21.4132 23.7092 22.1357 23.283L23.7108 23.5455C25.0239 23.7672 26.2125 24.4563 27.0573 25.4857C26.2275 26.6499 25.1316 27.5989 23.8608 28.2537C22.59 28.9085 21.1811 29.2502 19.7515 29.2502C18.3219 29.2502 16.913 28.9085 15.6422 28.2537C14.3714 27.5989 13.2755 26.6499 12.4457 25.4857C13.2901 24.4566 14.4782 23.7675 15.7907 23.5455ZM27.8545 24.1372C26.8115 23.0448 25.4437 22.3182 23.9545 22.0658L22.75 21.8647V19.5397C23.7591 19.0382 24.6268 18.2921 25.2739 17.3695C25.921 16.447 26.327 15.3771 26.455 14.2575C27.6441 15.579 28.4124 17.2249 28.6617 18.9851C28.911 20.7453 28.6299 22.5398 27.8545 24.1395V24.1372ZM26.5 38.25C26.6989 38.25 26.8897 38.329 27.0303 38.4697C27.171 38.6103 27.25 38.8011 27.25 39V45C27.25 45.1989 27.171 45.3897 27.0303 45.5303C26.8897 45.671 26.6989 45.75 26.5 45.75H7C6.80109 45.75 6.61032 45.671 6.46967 45.5303C6.32902 45.3897 6.25 45.1989 6.25 45V39C6.25 38.8011 6.32902 38.6103 6.46967 38.4697C6.61032 38.329 6.80109 38.25 7 38.25H13.75C13.8819 38.2503 14.0115 38.2157 14.1258 38.1499C14.2401 38.084 14.335 37.9892 14.401 37.875L16.75 33.762L19.099 37.872C19.1646 37.9868 19.2593 38.0822 19.3736 38.1486C19.488 38.215 19.6178 38.25 19.75 38.25H26.5ZM18.4307 33.6795L17.401 31.8795C17.3299 31.7718 17.2333 31.6834 17.1196 31.6223C17.006 31.5612 16.879 31.5292 16.75 31.5292C16.621 31.5292 16.494 31.5612 16.3804 31.6223C16.2667 31.6834 16.1701 31.7718 16.099 31.8795L15.4375 33.036C13.1785 32.2765 11.1612 30.932 9.59082 29.1393C8.02046 27.3466 6.95318 25.1698 6.49764 22.8306C6.0421 20.4913 6.21457 18.0731 6.9975 15.8221C7.78043 13.5712 9.14586 11.5679 10.9548 10.0162C11.1875 10.9875 11.6157 11.901 12.2133 12.7013L12.3235 12.8512C10.8552 14.3197 9.85523 16.1907 9.45018 18.2274C9.04512 20.2642 9.25312 22.3754 10.0479 24.2939C10.8426 26.2125 12.1884 27.8523 13.9151 29.006C15.6418 30.1597 17.6718 30.7755 19.7485 30.7755C21.8252 30.7755 23.8552 30.1597 25.5819 29.006C27.3086 27.8523 28.6544 26.2125 29.4491 24.2939C30.2439 22.3754 30.4519 20.2642 30.0468 18.2274C29.6418 16.1907 28.6418 14.3197 27.1735 12.8512L27.2838 12.7013C27.8813 11.901 28.3095 10.9875 28.5422 10.0162C30.6338 11.8119 32.1252 14.2049 32.816 16.8735C33.5068 19.5421 33.3638 22.3582 32.4062 24.9431C31.4486 27.528 29.7224 29.7576 27.4598 31.3321C25.1971 32.9066 22.5066 33.7504 19.75 33.75C19.3097 33.75 18.868 33.7222 18.4307 33.6795ZM42.8185 45.75C42.4989 45.751 42.1824 45.6886 41.8871 45.5663C41.5919 45.444 41.3239 45.2642 41.0988 45.0375L28.4823 32.4217C29.8072 31.4688 30.9688 30.3072 31.9217 28.9823L44.5375 41.598C44.8776 41.9381 45.1092 42.3714 45.203 42.8431C45.2969 43.3148 45.2488 43.8038 45.0648 44.2482C44.8808 44.6925 44.5692 45.0724 44.1694 45.3397C43.7696 45.607 43.2995 45.7498 42.8185 45.75Z" fill="white"/>
<path d="M37.6577 9.96824L36.2785 14.7937C36.2348 14.9477 36.2415 15.1116 36.2976 15.2615C36.3538 15.4114 36.4563 15.5393 36.5904 15.6267C36.7245 15.7141 36.883 15.7564 37.0428 15.7472C37.2026 15.7381 37.3552 15.6781 37.4785 15.576L41.5 12.225L45.5185 15.5745C45.6417 15.6765 45.7942 15.7364 45.9539 15.7455C46.1136 15.7546 46.2719 15.7125 46.406 15.6252C46.54 15.5379 46.6426 15.4101 46.6988 15.2604C46.755 15.1107 46.7619 14.9469 46.7185 14.793L45.34 9.96674L48.778 6.52874C48.8822 6.42391 48.9531 6.29062 48.9818 6.14562C49.0105 6.00062 48.9957 5.85037 48.9393 5.71374C48.8829 5.57712 48.7874 5.46021 48.6647 5.3777C48.5421 5.29519 48.3978 5.25076 48.25 5.24999H44.2142L42.175 1.16474C42.1057 1.04851 42.0074 0.952262 41.8897 0.885424C41.772 0.818586 41.639 0.783447 41.5037 0.783447C41.3684 0.783447 41.2354 0.818586 41.1177 0.885424C41.0001 0.952262 40.9018 1.04851 40.8325 1.16474L38.7872 5.24999H34.75C34.6016 5.25002 34.4567 5.29403 34.3334 5.37644C34.2101 5.45885 34.114 5.57597 34.0572 5.713C34.0005 5.85002 33.9856 6.0008 34.0145 6.14626C34.0435 6.29173 34.1149 6.42535 34.2197 6.53024L37.6577 9.96824ZM39.25 6.74999C39.39 6.75075 39.5274 6.71231 39.6467 6.63901C39.766 6.56571 39.8624 6.46049 39.925 6.33524L41.5 3.17699L43.0787 6.33524C43.141 6.45991 43.2368 6.56476 43.3554 6.63802C43.474 6.71128 43.6106 6.75005 43.75 6.74999H46.4395L43.9697 9.21974C43.8752 9.31421 43.8076 9.43223 43.774 9.56159C43.7403 9.69095 43.7419 9.82694 43.7785 9.95549L44.6095 12.8655L41.9845 10.674C41.8496 10.5615 41.6796 10.5 41.5041 10.5C41.3285 10.5 41.1585 10.5615 41.0237 10.674L38.3935 12.8655L39.2245 9.95624C39.2612 9.82758 39.2628 9.69144 39.2292 9.56194C39.1955 9.43243 39.1279 9.31428 39.0332 9.21974L36.5605 6.74999H39.25Z" fill="white"/>
<path d="M51.1937 20.7127C51.1369 20.5756 51.0406 20.4584 50.9171 20.3761C50.7936 20.2937 50.6484 20.2498 50.5 20.25H46.4642L44.425 16.1647C44.3557 16.0485 44.2574 15.9523 44.1397 15.8854C44.022 15.8186 43.889 15.7834 43.7537 15.7834C43.6184 15.7834 43.4854 15.8186 43.3677 15.8854C43.2501 15.9523 43.1518 16.0485 43.0825 16.1647L41.0372 20.25H37C36.8516 20.25 36.7067 20.294 36.5834 20.3764C36.4601 20.4589 36.364 20.576 36.3072 20.713C36.2505 20.85 36.2356 21.0008 36.2645 21.1463C36.2935 21.2917 36.3649 21.4254 36.4697 21.5302L39.9077 24.9682L38.5285 29.7937C38.4848 29.9477 38.4915 30.1116 38.5476 30.2615C38.6038 30.4114 38.7063 30.5393 38.8404 30.6267C38.9745 30.7141 39.133 30.7564 39.2928 30.7472C39.4526 30.7381 39.6052 30.6781 39.7285 30.576L43.75 27.225L47.7685 30.5745C47.8917 30.6765 48.0442 30.7364 48.2039 30.7455C48.3636 30.7546 48.5219 30.7125 48.656 30.6252C48.79 30.5379 48.8926 30.4101 48.9488 30.2604C49.005 30.1107 49.0119 29.9469 48.9685 29.793L47.59 24.9667L51.028 21.5287C51.1331 21.4243 51.205 21.2911 51.2345 21.1459C51.264 21.0006 51.2498 20.8499 51.1937 20.7127ZM46.2205 24.2197C46.1259 24.3142 46.0583 24.4322 46.0247 24.5616C45.9911 24.6909 45.9926 24.8269 46.0292 24.9555L46.8602 27.8655L44.2352 25.674C44.1004 25.5615 43.9304 25.5 43.7548 25.5C43.5793 25.5 43.4093 25.5615 43.2745 25.674L40.6442 27.8655L41.4752 24.9562C41.5119 24.8276 41.5136 24.6914 41.4799 24.5619C41.4463 24.4324 41.3786 24.3143 41.284 24.2197L38.8105 21.75H41.5C41.64 21.7508 41.7774 21.7123 41.8967 21.639C42.016 21.5657 42.1124 21.4605 42.175 21.3352L43.75 18.177L45.3287 21.3352C45.391 21.4599 45.4868 21.5648 45.6054 21.638C45.724 21.7113 45.8606 21.7501 46 21.75H48.6895L46.2205 24.2197Z" fill="white"/>
<path d="M25.75 42.75H7.75V44.25H25.75V42.75Z" fill="white"/>
<path d="M24.25 39.75H9.25V41.25H24.25V39.75Z" fill="white"/>
</g>
<defs>
<filter id="filter0_d_1_147" x="0" y="0" width="56" height="56" filterUnits="userSpaceOnUse" color-interpolation-filters="sRGB">
<feFlood flood-opacity="0" result="BackgroundImageFix"/>
<feColorMatrix in="SourceAlpha" type="matrix" values="0 0 0 0 0 0 0 0 0 0 0 0 0 0 0 0 0 0 127 0" result="hardAlpha"/>
<feOffset dy="4"/>
<feGaussianBlur stdDeviation="2"/>
<feComposite in2="hardAlpha" operator="out"/>
<feColorMatrix type="matrix" values="0 0 0 0 0 0 0 0 0 0 0 0 0 0 0 0 0 0 0.25 0"/>
<feBlend mode="normal" in2="BackgroundImageFix" result="effect1_dropShadow_1_147"/>
<feBlend mode="normal" in="SourceGraphic" in2="effect1_dropShadow_1_147" result="shape"/>
</filter>
<clipPath id="clip0_1_147">
<rect width="48" height="48" fill="white" transform="translate(4)"/>
</clipPath>
</defs>
</svg>
