<svg width="24" height="24" fill="none" xmlns="http://www.w3.org/2000/svg"><g clip-path="url(#clip0_1_345)"><path d="M23.66 5.27a.702.702 0 00-.658-.332l-1.173.102 1.121-2.26a.702.702 0 00-.937-.943l-2.968 1.454c-1.834-.968-4.125-.68-5.701.755-1.316 1.199-2.008 3.042-1.879 4.88-3.438-.345-6.35-2.313-8.07-5.494a.702.702 0 00-1.182-.083c-1.067 1.442-1.142 3.42-.305 5.046-.23-.058-.476-.137-.749-.228a.702.702 0 00-.914.78c.33 2.008 1.502 3.55 3.351 4.464a5.91 5.91 0 01-.736.204.702.702 0 00-.37 1.166c1.332 1.424 3.256 2.125 4.623 2.46-1.554 1.218-3.231 1.421-5.668 1.337A.703.703 0 00.9 19.751c1.016 1.12 4.717 2.383 8.609 2.477.153.004.31.006.47.006 2.733 0 6.344-.586 8.935-3.177 1.962-1.962 3.19-4.22 3.647-6.712.37-2.013.136-3.625.024-4.4a19.282 19.282 0 01-.024-.17l1.097-1.768a.702.702 0 00.002-.738zm-2.463 2.877c.209 1.435.842 5.802-3.274 9.917-2.392 2.393-5.877 2.822-8.38 2.762-2.135-.052-4.044-.46-5.429-.926a8.676 8.676 0 001.536-.323c1.303-.405 2.404-1.134 3.465-2.294a.702.702 0 00-.429-1.169c-.669-.086-2.68-.424-4.262-1.516a7.56 7.56 0 001.316-.699.702.702 0 00-.21-1.263c-1.296-.34-2.86-1.1-3.58-2.797.46.08.96.1 1.495-.02a.701.701 0 00.35-1.172C2.9 7.718 2.564 6.38 2.852 5.233a11.971 11.971 0 003.505 3.395 11.64 11.64 0 005.909 1.752.704.704 0 00.701-.854c-.363-1.635.156-3.38 1.323-4.442 1.21-1.103 3-1.27 4.35-.407a.702.702 0 00.687.039l1.45-.71-.76 1.53a.701.701 0 00.69 1.01l1.022-.089-.47.76c-.159.254-.126.48-.06.93z" fill="#302D2D"/></g><defs><clipPath id="clip0_1_345"><path fill="#fff" transform="translate(.235 .235)" d="M0 0h23.529v23.529H0z"/></clipPath></defs></svg>